<?xml version="1.0" standalone="no"?>
<!DOCTYPE svg PUBLIC "-//W3C//DTD SVG 20010904//EN"
 "http://www.w3.org/TR/2001/REC-SVG-20010904/DTD/svg10.dtd">
<svg version="1.0" xmlns="http://www.w3.org/2000/svg"
 width="687.000000pt" height="439.000000pt" viewBox="0 0 687.000000 439.000000"
 preserveAspectRatio="xMidYMid meet">
<metadata>
Created by potrace 1.16, written by Peter Selinger 2001-2019
</metadata>
<g transform="translate(0.000000,439.000000) scale(0.100000,-0.100000)"
fill="#ffffff" stroke="none">
<path d="M3627 4225 c-137 -48 -170 -234 -59 -327 127 -107 313 -20 314 146 0
29 -7 66 -15 83 -32 62 -116 114 -182 113 -11 -1 -37 -7 -58 -15z"/>
<path d="M2957 4068 c-21 -4 -43 -12 -50 -18 -65 -53 -95 -84 -90 -93 3 -6 1
-7 -6 -3 -14 9 -83 -62 -74 -77 3 -6 1 -7 -5 -3 -7 4 -12 2 -12 -4 0 -6 -4 -9
-8 -6 -10 6 -58 -55 -54 -67 1 -5 -2 -6 -8 -2 -5 3 -10 1 -10 -5 0 -6 -4 -9
-9 -6 -10 6 -57 -53 -53 -66 1 -5 -2 -7 -8 -3 -5 3 -10 1 -10 -5 0 -6 -4 -9
-8 -6 -10 6 -58 -55 -54 -67 1 -5 -2 -6 -8 -2 -5 3 -10 1 -10 -5 0 -6 -4 -9
-9 -6 -10 6 -57 -53 -53 -66 1 -5 -2 -7 -8 -3 -5 3 -10 1 -10 -5 0 -6 -4 -9
-8 -6 -10 6 -58 -55 -54 -67 1 -5 -2 -6 -8 -2 -5 3 -10 1 -10 -5 0 -6 -4 -9
-9 -6 -10 6 -57 -53 -53 -66 1 -5 -2 -7 -7 -4 -13 8 -56 -39 -77 -83 -25 -53
-15 -132 23 -179 17 -20 37 -36 43 -34 6 1 9 -1 6 -6 -7 -12 68 -84 79 -75 4
5 5 2 1 -4 -8 -15 63 -85 78 -76 5 3 6 2 3 -4 -8 -13 67 -86 78 -76 4 5 5 2 1
-4 -8 -15 63 -85 78 -76 5 3 6 2 3 -4 -8 -13 67 -86 78 -76 4 5 5 2 1 -4 -8
-15 63 -85 78 -76 5 3 6 2 3 -4 -8 -13 67 -86 78 -76 4 5 5 2 1 -5 -7 -12 50
-69 66 -64 4 1 7 -3 6 -10 -5 -20 63 -48 114 -48 64 0 165 57 153 87 -2 8 -1
11 5 8 10 -6 30 56 30 97 0 15 -5 30 -10 33 -6 4 -8 11 -5 16 4 5 -4 24 -17
42 -32 45 -129 142 -139 140 -5 -2 -8 3 -6 10 1 6 -4 11 -11 9 -8 -1 -11 1 -8
6 3 4 -9 21 -27 38 -17 16 -27 23 -22 15 5 -10 4 -12 -4 -7 -6 4 -9 11 -6 15
5 9 -66 77 -77 74 -5 -2 -7 1 -5 6 2 7 -78 91 -87 91 -3 0 -36 32 -75 71 -51
52 -68 75 -61 84 5 6 6 15 2 19 -4 4 -2 6 4 4 15 -5 104 83 97 96 -3 6 -2 8 2
4 13 -12 416 394 410 412 -4 8 -3 11 1 7 15 -14 44 48 44 93 0 50 -39 137 -59
132 -7 -1 -10 2 -7 7 17 26 -96 62 -157 49z"/>
<path d="M3995 3858 c-50 -18 -82 -46 -104 -91 -27 -56 -28 -141 -2 -182 37
-59 315 -334 353 -350 46 -19 118 -19 161 -1 59 24 117 111 117 176 0 63 -24
97 -183 259 -99 100 -178 171 -202 182 -44 21 -94 23 -140 7z"/>
<path d="M3335 3416 c-44 -19 -94 -80 -101 -124 -3 -20 -6 -39 -7 -42 0 -3 3
-25 7 -49 6 -42 21 -59 208 -248 111 -111 206 -199 211 -196 6 3 7 1 4 -4 -4
-6 28 -43 70 -83 56 -53 73 -75 63 -79 -27 -11 -59 -44 -53 -55 3 -6 2 -8 -2
-4 -11 10 -195 -173 -188 -187 4 -5 3 -7 -1 -3 -10 9 -67 -42 -60 -54 3 -5 1
-7 -4 -6 -5 2 -43 -32 -85 -74 -41 -43 -73 -78 -71 -78 2 0 -17 -21 -41 -46
-53 -54 -71 -108 -57 -166 24 -92 96 -148 192 -148 27 0 50 4 50 10 0 5 7 7
16 3 11 -4 113 91 356 333 187 187 354 359 371 384 26 38 32 54 32 102 0 48
-5 64 -31 100 -17 24 -36 42 -43 41 -6 -2 -10 0 -9 5 4 12 -45 62 -55 55 -6
-3 -7 -2 -4 4 7 11 -62 80 -76 75 -5 -1 -6 1 -3 6 6 10 -64 78 -77 74 -5 -1
-6 1 -3 6 6 10 -64 78 -77 74 -5 -1 -6 1 -3 6 6 10 -64 78 -77 74 -5 -1 -6 1
-3 6 7 11 -65 78 -78 74 -6 -2 -8 0 -4 4 10 10 -73 94 -86 87 -5 -3 -6 -2 -3
4 8 13 -68 85 -119 112 -44 24 -113 27 -159 7z"/>
<path d="M2005 2611 c-102 -46 -140 -163 -88 -266 9 -16 86 -100 172 -186 170
-170 194 -185 282 -177 65 7 125 47 150 101 23 51 24 127 4 171 -20 42 -332
351 -368 365 -42 16 -107 13 -152 -8z"/>
<path d="M2655 1987 c-56 -22 -74 -37 -102 -84 -68 -117 1 -267 133 -289 115
-18 224 75 224 191 0 131 -137 228 -255 182z"/>
<path d="M393 1134 c-136 -36 -213 -115 -213 -219 0 -103 53 -159 192 -203 51
-17 109 -33 128 -37 101 -21 160 -77 140 -130 -16 -43 -68 -58 -185 -53 -94 3
-106 6 -188 45 l-87 42 0 -93 0 -94 56 -26 c232 -110 513 -50 572 123 18 51
14 130 -8 178 -25 57 -79 90 -224 136 -130 43 -176 73 -176 117 0 90 175 105
301 25 30 -19 58 -30 62 -26 4 4 7 39 5 77 -3 68 -3 68 -43 91 -90 52 -238 73
-332 47z"/>
<path d="M1907 1144 c-4 -4 -7 -193 -7 -421 l0 -413 285 0 285 0 0 60 0 60
-190 0 -190 0 -2 358 -3 357 -85 3 c-47 1 -89 0 -93 -4z"/>
<path d="M2567 1144 c-3 -4 -6 -193 -7 -420 l0 -414 285 0 285 0 0 60 0 60
-190 0 -190 0 0 360 0 360 -88 0 c-49 0 -91 -3 -95 -6z"/>
<path d="M3433 1140 c-152 -31 -240 -123 -231 -242 8 -105 67 -154 248 -203
135 -37 194 -66 210 -104 10 -26 10 -35 -3 -55 -24 -36 -76 -49 -186 -44 -89
3 -104 7 -184 45 l-87 42 0 -94 0 -94 54 -25 c233 -110 515 -50 574 123 18 51
14 130 -8 178 -25 57 -79 90 -224 136 -130 43 -176 73 -176 117 0 90 176 105
301 25 30 -19 57 -35 60 -35 3 0 5 35 5 77 l-1 77 -40 23 c-82 47 -223 71
-312 53z"/>
<path d="M3880 1060 l0 -90 140 0 140 0 0 -330 0 -330 90 0 90 0 0 330 0 330
134 0 134 0 -1 88 -2 87 -362 3 -363 2 0 -90z"/>
<path d="M900 725 l0 -415 85 0 84 0 3 151 3 150 160 -117 c88 -64 181 -132
208 -151 l47 -35 0 101 0 100 -155 121 c-85 67 -157 125 -160 130 -3 4 65 49
150 99 l155 91 0 95 0 96 -27 -15 c-16 -8 -108 -59 -205 -114 l-178 -100 0
114 0 114 -85 0 -85 0 0 -415z"/>
<path d="M1600 725 l0 -415 85 0 85 0 0 415 0 415 -85 0 -85 0 0 -415z"/>
<path d="M4701 738 c-79 -222 -146 -409 -149 -415 -3 -10 19 -13 90 -13 l94 0
28 85 27 85 154 0 153 0 22 -73 c11 -39 23 -78 25 -84 5 -14 155 -19 155 -5 0
4 -65 189 -144 412 l-144 405 -84 3 -84 3 -143 -403z m298 11 l48 -164 -100
-3 c-55 -1 -101 -1 -103 1 -2 1 10 48 27 102 16 55 39 131 50 168 11 38 22 67
25 64 2 -2 26 -78 53 -168z"/>
<path d="M5515 1116 c-59 -27 -106 -77 -129 -138 -15 -37 -17 -78 -14 -279 l3
-236 30 -48 c21 -35 45 -56 80 -74 47 -25 58 -26 210 -26 152 0 162 1 205 25
58 33 105 96 119 160 6 29 9 56 5 61 -3 5 -41 9 -84 9 l-78 0 -7 -29 c-9 -44
-48 -81 -87 -83 -74 -3 -150 2 -168 12 -37 20 -44 51 -48 215 -6 246 13 286
139 293 79 5 120 -8 150 -46 l20 -25 57 18 c110 34 105 30 86 67 -32 61 -66
97 -117 123 -47 23 -61 25 -186 25 -121 0 -141 -3 -186 -24z"/>
<path d="M6130 725 l0 -415 85 0 84 0 3 151 3 150 160 -117 c88 -64 181 -132
208 -151 l47 -35 0 101 0 100 -155 122 c-85 67 -157 125 -160 129 -3 4 65 49
150 99 l155 92 0 95 0 95 -22 -12 c-13 -7 -105 -58 -205 -115 l-183 -102 0
114 0 114 -85 0 -85 0 0 -415z"/>
</g>
</svg>
